<svg version="1.2" xmlns="http://www.w3.org/2000/svg" viewBox="0 0 512 512" width="512" height="512">
	<title>file</title>
	<style>
		.s0 { fill: #000000 } 
	</style>
	<path id="Path 0" fill-rule="evenodd" class="s0" d="m328 0h75v133.5l6.8 3.1c3.7 1.8 10.3 5.9 14.7 9.1 4.4 3.3 10.5 8.9 13.6 12.4 3.1 3.5 7.1 8.7 8.9 11.4 1.9 2.7 4.9 8.4 6.8 12.5 1.9 4.1 4.6 11.8 6 17 2.4 9.2 2.5 10.5 3.2 88h10.3c8.8 0 10.9 0.4 15.4 2.5 3.5 1.6 6.3 4 8.3 6.8 1.7 2.3 3.5 6.3 4 8.9 0.6 2.7 1 12 1 36.8h-15v3.5c0 2.9 0.6 3.8 3.2 5.4 1.8 1 5.7 4.5 8.7 7.7 2.9 3.3 6.1 7.5 7.1 9.4 1 1.9 2.7 6.4 3.9 10 2.1 6.3 2.1 8.2 2.1 61 0 48.8-0.1 54.9-1.6 58-0.9 1.9-2.7 5-4 6.8-1.3 1.7-4.7 4.3-12.4 8.2h-494v-240l60-90v-60h204v60.5l3.3 6.2c1.7 3.5 3.4 6.3 3.7 6.3 0.3 0 1.1-1.9 1.9-4.2 0.7-2.4 2.7-7 4.3-10.3 1.7-3.3 4.6-8.5 6.6-11.5 1.9-3 6.7-8.8 10.6-12.9 3.9-4 9.8-9.2 13.1-11.6 3.3-2.3 9.3-5.9 20.5-11.5zm15 59h45v-44h-45zm0 84.5c-11.2 4.4-17.4 7.4-21 9.5-3.6 2.1-9.6 6.7-13.5 10.2-3.9 3.6-9.1 9.6-11.6 13.4-2.5 3.8-5.6 9.2-6.8 11.9-1.3 2.8-3.1 7.7-4.1 11-0.9 3.3-2.1 8.7-2.5 12l-0.7 6 29.2 54.5v225h35.5v-118.5c5.1-10.9 8.3-16 10.3-18.4 2-2.4 6-6 8.9-8 4.5-3.1 5.2-4.1 5.3-6.8v-3.3h-15c0-34.8 0.3-38.1 1.9-41.5 1-2.2 3.1-5.3 4.7-6.9 1.6-1.5 4.3-3.6 5.9-4.5 2.6-1.4 7.9-1.6 40.8-1.8l37.7-0.3c-0.7-74.3-0.9-78.1-2.8-85-1.2-4.1-3.9-11.1-6.1-15.5-2.1-4.4-6.2-10.9-9.1-14.5-2.8-3.6-7.6-8.5-10.5-11-2.9-2.5-7.7-6-10.7-7.7-2.9-1.8-8-4.4-11.3-5.7-3.3-1.3-6.8-2.6-7.8-3-1.6-0.6-1.7-3.2-1.7-35.6v-35h-45zm-268 33.5h174v-40h-174zm-28.4 52c-13.6 20.3-24.6 37.2-24.6 37.5 0 0.3 39.7 0.5 88.2 0.5l88.3 0.1c33.3-56.1 43.3-73 43.7-73.8 0.6-1.1-13.8-1.3-85.1-1.3h-85.9zm164.4 46.5v221.5h86v-221c-30.9-58.9-40.2-76-40.7-76-0.4 0-10.8 17-23 37.8zm-196.1 221.5h181v-215h-181zm356.9-180.5l0.1 10.5h115c0-13.2-0.5-18.3-1.1-19.8-0.6-1.5-1.8-3.3-2.7-3.9-1.3-1-14.4-1.3-53.8-1.3-51.1 0-52.1 0-54.8 2-2.7 2.1-2.8 2.3-2.7 12.5zm15.1 41.5c-9.3 4.6-13.9 7.9-16.2 10.2-2.3 2.4-4.9 6.1-5.8 8.3-1 2.2-2 5.2-2.3 6.7l-0.7 2.8c130.2 0 134-0.1 134.1-1.8 0-0.9-1.4-4.4-3-7.7-1.6-3.3-4.9-7.8-7.2-10-2.4-2.1-6.5-4.8-9.2-6l-4.7-2v-16.5h-85zm-25 109h135l-0.5-65.5-134.5-0.5zm0.1 20.5c-0.1 4.8 0.3 5.7 2.7 7.5 2.7 2 3.9 2 64.7 2 60.8 0 62.1 0 64.3-2 1.2-1.1 2.5-3.5 2.8-5.3 0.4-1.8 0.5-4.1 0.3-5.2-0.4-2-1.3-2-67.6-2.3l-67.2-0.3zm26.7-327.4c0.4 0 4.1 1.7 8.2 3.7 4.4 2.3 10.2 6.4 14.4 10.3 3.8 3.5 8.2 8.4 12.7 15l-4.3 2.6c-2.3 1.5-5.3 3.2-6.6 3.8-2.1 0.9-2.6 0.7-4-1.4-0.8-1.4-4-5-7.1-8.1-3-3-8.2-6.8-11.5-8.5-3.3-1.6-6.3-3.1-6.5-3.2-0.3-0.2 0.5-3.5 1.7-7.3 1.3-3.8 2.7-6.9 3-6.9zm41.1 45c1 0 1.5 1.7 1.9 5.7 0.2 3.2 0.5 6.9 0.6 8.3 0.1 2.4 0 2.5-14.3 3l-0.5-3.3c-0.3-1.8-0.6-4.8-0.8-6.7-0.2-3.5-0.2-3.5 5.8-5.2 3.3-0.9 6.6-1.7 7.3-1.8zm-350.6 2h38.8l-0.5 14.5-30 0.4-17.5 26.1-2.8-1.7c-1.5-0.9-4.2-2.6-6-3.8-1.8-1.1-3.2-2.4-3.2-2.8 0-0.4 4.7-7.9 10.6-16.7zm52.6 0h15.9l-0.3 14.5h-15zm-82.9 154h100v15h-100zm0 38h108v15h-108zm348 28h15v15h-15zm30 0h15v15h-15zm30 0h15v15h-15zm-408 10h64v15h-64z"/>
</svg>