<svg width="512" height="512" viewBox="0 0 512 512" fill="none" xmlns="http://www.w3.org/2000/svg">
<path d="M55.9996 16C61.6096 16 67.2196 16 72.9996 16C73.0674 25.562 73.1225 35.1239 73.1551 44.6861C73.1707 49.1264 73.1919 53.5665 73.2259 58.0066C73.2586 62.2925 73.2765 66.5782 73.2843 70.8641C73.2898 72.4984 73.3006 74.1327 73.3168 75.7669C73.3386 78.0579 73.3416 80.3483 73.3402 82.6394C73.3469 83.9429 73.3535 85.2464 73.3604 86.5894C72.9752 90.2309 72.204 92.11 69.9996 95C67.4307 96.2845 65.2339 96.3298 62.3746 96.5625C61.3717 96.6463 60.3688 96.7301 59.3356 96.8164C58.5647 96.877 57.7938 96.9376 56.9996 97C57.3563 97.5276 57.7129 98.0552 58.0804 98.5988C61.7968 104.097 65.5114 109.597 69.225 115.097C70.6106 117.149 71.9966 119.2 73.3832 121.251C75.3776 124.202 77.3704 127.154 79.3629 130.105C79.9818 131.02 80.6006 131.935 81.2382 132.877C81.8186 133.738 82.399 134.599 82.9969 135.485C83.5055 136.238 84.014 136.991 84.5379 137.766C86.0916 140.141 87.5547 142.558 88.9996 145C89.7834 144.835 90.5671 144.67 91.3746 144.5C95.9662 143.867 100.365 143.937 105 144C105 149.28 105 154.56 105 160C103.35 160.33 101.7 160.66 99.9996 161C101.98 163.97 101.98 163.97 104 167C111.996 156.453 119.122 145.314 126.375 134.25C128.281 131.347 130.187 128.445 132.094 125.543C133.328 123.666 134.561 121.789 135.794 119.911C140.827 112.25 145.9 104.616 151 97C150.194 96.9617 149.389 96.9233 148.559 96.8838C147.632 96.8396 146.705 96.7955 145.75 96.75C144.775 96.7036 143.801 96.6572 142.796 96.6094C139.239 95.8343 138.204 94.8857 136 92C135.625 89.3788 135.492 87.1843 135.546 84.5693C135.545 83.8275 135.544 83.0856 135.544 82.3213C135.547 79.8752 135.578 77.4303 135.609 74.9844C135.616 73.2862 135.622 71.5879 135.626 69.8897C135.641 65.4244 135.681 60.9597 135.725 56.4946C135.766 51.9366 135.784 47.3785 135.804 42.8203C135.847 33.8799 135.918 24.9401 136 16C141.61 16 147.22 16 153 16C153 37.12 153 58.24 153 80C159.27 80 165.54 80 172 80C176 83 176 83 177.062 85.5625C176.914 93.6855 170.673 101.328 166.187 107.836C165.629 108.658 165.07 109.479 164.495 110.326C163.293 112.093 162.089 113.859 160.882 115.622C157.638 120.366 154.412 125.122 151.187 129.879C150.519 130.864 149.85 131.849 149.161 132.864C140.39 145.816 131.833 158.91 123.281 172.007C122.125 173.772 120.968 175.536 119.812 177.301C119.296 178.096 118.779 178.891 118.247 179.71C115.397 184.053 112.41 188.079 109 192C110.496 193.379 111.997 194.753 113.5 196.125C114.335 196.891 115.17 197.656 116.031 198.445C119.559 201.482 123.247 204.249 127 207C127.029 203.188 127.047 199.375 127.062 195.562C127.075 193.959 127.075 193.959 127.088 192.322C127.106 186.124 126.82 180.145 126 174C128.098 172.967 130.204 171.949 132.312 170.938C133.484 170.369 134.656 169.801 135.863 169.215C139 168 139 168 142 169C144.639 174.328 144.101 179.637 143.886 185.41C143.853 187.473 143.824 189.536 143.798 191.6C143.754 194.826 143.688 198.044 143.551 201.268C142.645 214.657 142.645 214.657 148.239 226.238C151.322 229.118 154.633 231.535 158.181 233.809C160.747 235.489 163.045 237.448 165.375 239.438C167.249 240.959 169.124 242.48 171 244C173.983 246.432 176.961 248.871 179.937 251.312C180.672 251.912 181.406 252.511 182.163 253.129C191.633 260.9 191.633 260.9 193 265C193.1 267.964 193.143 270.905 193.14 273.869C193.143 274.787 193.146 275.705 193.149 276.65C193.158 279.739 193.159 282.827 193.161 285.916C193.165 288.125 193.17 290.334 193.176 292.543C193.189 298.553 193.195 304.563 193.2 310.574C193.203 314.326 193.207 318.078 193.211 321.831C193.223 332.219 193.234 342.608 193.237 352.996C193.238 353.994 193.238 353.994 193.238 355.011C193.238 355.678 193.238 356.344 193.239 357.031C193.239 358.381 193.239 359.732 193.24 361.082C193.24 362.087 193.24 362.087 193.241 363.112C193.244 373.969 193.262 384.826 193.285 395.683C193.309 406.828 193.321 417.974 193.323 429.119C193.324 435.377 193.33 441.636 193.347 447.894C193.364 453.779 193.366 459.664 193.357 465.549C193.356 467.711 193.361 469.873 193.371 472.035C193.383 474.982 193.378 477.929 193.367 480.877C193.379 482.165 193.379 482.165 193.392 483.48C193.353 488.136 193.036 491.223 190 495C187.117 496.441 184.63 496.136 181.408 496.147C180.381 496.153 180.381 496.153 179.333 496.158C177.026 496.169 174.72 496.173 172.414 496.177C170.765 496.183 169.116 496.19 167.467 496.197C162.98 496.214 158.492 496.225 154.004 496.233C151.203 496.238 148.401 496.244 145.599 496.251C136.838 496.27 128.077 496.284 119.317 496.292C109.193 496.302 99.0703 496.328 88.9471 496.369C81.1288 496.399 73.3105 496.414 65.4922 496.417C60.8195 496.419 56.147 496.428 51.4743 496.453C47.0797 496.477 42.6855 496.481 38.2909 496.471C36.6768 496.47 35.0627 496.477 33.4486 496.49C31.247 496.508 29.0467 496.501 26.8451 496.488C24.9962 496.491 24.9962 496.491 23.1099 496.495C19.9996 496 19.9996 496 17.6065 494.541C15.1933 490.725 15.4236 487.288 15.4446 482.855C15.4334 481.919 15.4222 480.983 15.4107 480.02C15.3783 476.877 15.3746 473.734 15.371 470.591C15.3541 468.341 15.3356 466.091 15.3156 463.84C15.2674 457.72 15.2458 451.6 15.2318 445.48C15.2223 441.656 15.2078 437.832 15.1918 434.008C15.1481 423.414 15.1108 412.819 15.1012 402.225C15.1005 401.547 15.0999 400.869 15.0993 400.171C15.098 398.796 15.0968 397.422 15.0955 396.048C15.0949 395.366 15.0943 394.684 15.0936 393.981C15.093 393.298 15.0924 392.615 15.0917 391.911C15.0803 380.854 15.0184 369.797 14.9344 358.74C14.8488 347.378 14.8056 336.018 14.802 324.656C14.7991 318.28 14.7785 311.906 14.7143 305.53C14.6551 299.529 14.6487 293.531 14.6823 287.53C14.6856 285.332 14.6703 283.133 14.6345 280.935C14.3679 263.489 14.3679 263.489 18.343 258.574C21.1051 256.021 23.8373 254.023 26.9996 252C28.8488 250.498 30.6843 248.98 32.4996 247.438C34.3312 245.956 36.1645 244.477 37.9996 243C39.793 241.544 41.5847 240.085 43.3746 238.625C44.2679 237.897 45.1613 237.168 46.0817 236.418C48.2436 234.626 50.3837 232.82 52.5113 230.988C53.1019 230.482 53.6924 229.975 54.3009 229.453C55.4579 228.457 56.6114 227.458 57.7608 226.454C61.7783 223 61.7783 223 63.9996 223C63.9863 222.153 63.9863 222.153 63.9727 221.29C63.8836 215.368 63.8236 209.446 63.7799 203.524C63.7599 201.319 63.7327 199.115 63.6979 196.91C63.6488 193.725 63.6265 190.541 63.609 187.355C63.5883 186.384 63.5677 185.413 63.5464 184.412C63.5428 173.071 67.9086 164.36 73.9996 155C73.6652 154.506 73.3307 154.011 72.9861 153.502C69.4298 148.245 65.876 142.987 62.3236 137.727C61.0065 135.778 59.6888 133.829 58.3705 131.88C54.53 126.204 50.7072 120.516 46.8976 114.819C44.9981 111.998 43.0718 109.197 41.1417 106.396C39.9413 104.624 38.7416 102.851 37.5426 101.078C36.9817 100.279 36.4208 99.4803 35.843 98.6572C32.4152 93.5292 30.997 90.1905 31.9996 84C33.3196 82.68 34.6396 81.36 35.9996 80C42.5996 80 49.1996 80 55.9996 80C55.9996 58.88 55.9996 37.76 55.9996 16ZM83.9996 172C81.3891 176.522 80.6376 179.727 80.7066 184.93C80.7163 186.219 80.726 187.508 80.7359 188.836C80.761 190.182 80.7864 191.529 80.8121 192.875C80.8272 194.245 80.8409 195.615 80.8531 196.984C80.8884 200.323 80.9377 203.661 80.9996 207C83.7085 205.738 85.9099 204.392 88.1637 202.434C89.0106 201.706 89.0106 201.706 89.8746 200.963C90.4521 200.46 91.0296 199.956 91.6246 199.438C97.7598 194.12 97.7598 194.12 99.9996 193C99.9996 192.34 99.9996 191.68 99.9996 191C99.3396 191 98.6796 191 97.9996 191C97.7173 190.416 97.435 189.831 97.1441 189.229C95.3508 185.736 93.1643 182.522 90.9996 179.25C90.5484 178.553 90.0973 177.855 89.6324 177.137C88.4755 175.388 87.2431 173.689 85.9996 172C85.3396 172 84.6796 172 83.9996 172ZM95.9527 217.504C93.8026 219.321 91.7196 220.928 89.4215 222.527C82.6204 227.214 82.6204 227.214 79.3629 234.488C79.6932 238.921 80.5983 242.796 81.9996 247C85.4676 245.663 85.4676 245.663 88.7731 243.977C96.7436 239.671 106.349 239.644 115.043 241.73C123.465 244.852 128.986 249.958 133 258C136.368 266.351 136.495 277.147 133.312 285.625C129.389 293.786 123.597 298.742 115.23 302.117C106.518 304.498 96.214 304.12 88.0426 300.191C80.0953 295.557 75.4071 288.849 72.9996 280C72.8338 277.401 72.7325 274.849 72.6871 272.25C72.4489 266.08 71.4441 261.669 68.277 256.262C66.2708 252.71 65.1571 248.896 63.9996 245C59.4339 247.908 55.3787 251.122 51.3121 254.688C45.9511 259.339 40.5266 263.887 35.0113 268.355C33.1234 269.843 33.1234 269.843 31.9996 271C31.9018 273.693 31.8697 276.361 31.8794 279.055C31.8785 279.909 31.8777 280.763 31.8768 281.644C31.8751 284.529 31.8806 287.414 31.8861 290.299C31.8864 292.358 31.8862 294.418 31.8857 296.477C31.8854 302.086 31.8913 307.695 31.8982 313.305C31.9045 319.16 31.9051 325.015 31.9063 330.87C31.9094 341.965 31.9176 353.061 31.9276 364.157C31.9408 379.145 31.9463 394.132 31.9521 409.12C31.9615 432.747 31.9814 456.373 31.9996 480C79.5196 480 127.04 480 176 480C176.291 443.073 176.291 443.073 176.488 406.146C176.547 391.088 176.617 376.031 176.754 360.973C176.854 350.007 176.918 339.041 176.941 328.075C176.954 322.268 176.984 316.463 177.057 310.658C177.125 305.19 177.146 299.724 177.131 294.256C177.133 292.252 177.153 290.248 177.192 288.244C177.687 277.492 177.687 277.492 173.8 267.844C171.307 265.569 168.867 263.766 166 262C164.551 260.782 164.551 260.782 163.074 259.539C162.286 258.907 161.499 258.276 160.687 257.625C156.58 254.3 152.525 250.923 148.5 247.5C144.531 244.127 140.539 240.788 136.5 237.5C132.46 234.212 128.469 230.872 124.5 227.5C122.867 226.118 121.235 224.737 119.602 223.356C118.539 222.456 117.477 221.555 116.417 220.651C114.929 219.386 113.433 218.13 111.937 216.875C111.08 216.151 110.223 215.426 109.339 214.68C103.262 210.317 101.123 213.038 95.9527 217.504ZM93.9996 260C94.3296 260.66 94.6596 261.32 94.9996 262C97.1254 262.467 97.1254 262.467 99.5621 262.625C101.026 262.749 102.491 262.873 104 263C104 268.61 104 274.22 104 280C99.7096 279.67 95.4196 279.34 90.9996 279C93.2801 283.561 94.4888 284.745 98.9996 287C103.987 287.81 107.804 287.576 112.375 285.375C115.959 282.132 118.595 279.535 119.382 274.602C119.638 268.918 118.936 265.351 115 261C110.602 257.021 107.071 256.444 101.347 256.66C98.3649 257.092 96.344 258.124 93.9996 260Z" fill="black"/>
<path d="M344 16C349.28 16 354.56 16 360 16C360.091 62.3033 360.162 108.607 360.204 154.91C360.209 160.373 360.214 165.835 360.219 171.298C360.22 172.385 360.221 173.473 360.222 174.593C360.24 192.218 360.271 209.844 360.308 227.469C360.346 245.544 360.368 263.62 360.376 281.696C360.381 292.856 360.399 304.015 360.431 315.175C360.452 322.821 360.459 330.466 360.454 338.112C360.451 342.527 360.455 346.943 360.476 351.359C360.496 355.398 360.497 359.437 360.483 363.476C360.481 364.94 360.487 366.405 360.499 367.869C360.515 369.854 360.504 371.838 360.492 373.823C360.493 374.927 360.495 376.032 360.496 377.169C359.881 380.676 358.798 381.862 356 384C353.203 384.391 353.203 384.391 350.25 384.25C349.265 384.214 348.28 384.178 347.265 384.141C346.518 384.094 345.77 384.048 345 384C351.115 392.704 357.257 401.386 363.5 410C368.21 416.501 372.863 423.039 377.48 429.605C381.643 435.516 385.873 441.376 390.116 447.23C395.814 455.104 401.412 463.047 407 471C410.432 469.856 410.798 469.227 412.714 466.309C413.229 465.537 413.744 464.766 414.275 463.971C414.823 463.135 415.372 462.299 415.937 461.438C420.136 455.161 424.41 448.997 429 443C433.357 437.288 437.477 431.453 441.5 425.5C446.019 418.813 450.704 412.303 455.594 405.883C460.989 398.767 466.002 391.398 471 384C470.252 384.046 469.504 384.093 468.734 384.141C467.749 384.177 466.764 384.213 465.75 384.25C464.775 384.296 463.8 384.343 462.796 384.391C459.194 383.887 458.259 382.799 456 380C455.503 377.58 455.503 377.58 455.507 374.823C455.495 373.243 455.495 373.243 455.483 371.632C455.501 369.898 455.501 369.898 455.519 368.13C455.515 366.901 455.512 365.673 455.508 364.407C455.503 360.995 455.515 357.585 455.535 354.173C455.553 350.495 455.547 346.816 455.544 343.138C455.542 336.765 455.554 330.392 455.577 324.018C455.609 314.804 455.62 305.589 455.625 296.374C455.633 281.424 455.66 266.474 455.698 251.524C455.734 237.001 455.763 222.478 455.78 207.954C455.781 207.059 455.782 206.164 455.783 205.242C455.788 200.752 455.793 196.262 455.798 191.771C455.84 154.514 455.91 117.257 456 80C461.28 80 466.56 80 472 80C472 175.04 472 270.08 472 368C478.6 368 485.2 368 492 368C496 372 496 372 496.609 375.688C496.314 381.095 493.376 384.764 490.25 389C489.66 389.829 489.071 390.658 488.464 391.512C484.255 397.397 479.907 403.184 475.522 408.939C471.675 414.014 468.065 419.225 464.5 424.5C460.019 431.131 455.371 437.579 450.519 443.941C446.675 449.017 443.064 454.225 439.5 459.5C434.886 466.327 430.108 472.984 425.119 479.541C421.707 484.029 418.447 488.595 415.304 493.277C414 495 414 495 412 496C406.315 496.559 406.315 496.559 404 496C399.522 492.227 396.298 487.496 392.937 482.75C392.087 481.562 392.087 481.562 391.22 480.35C386.961 474.384 382.738 468.393 378.521 462.397C374.887 457.236 371.203 452.112 367.5 447C362.789 440.499 358.137 433.961 353.519 427.395C349.885 422.234 346.203 417.111 342.5 412C338.111 405.941 333.753 399.861 329.437 393.75C328.948 393.059 328.46 392.368 327.957 391.656C327.048 390.368 326.144 389.077 325.243 387.783C324.072 386.104 322.882 384.438 321.691 382.773C319.199 378.687 319.392 376.708 320 372C321.98 370.02 321.98 370.02 324 368C330.6 368 337.2 368 344 368C344 251.84 344 135.68 344 16Z" fill="black"/>
<path d="M208 16C213.28 16 218.56 16 224 16C224.094 43.5723 224.164 71.1445 224.208 98.7169C224.228 111.519 224.256 124.32 224.302 137.122C224.342 148.278 224.368 159.433 224.377 170.589C224.382 176.498 224.394 182.407 224.423 188.316C224.45 193.874 224.459 199.432 224.453 204.99C224.454 207.034 224.462 209.077 224.477 211.12C224.497 213.904 224.492 216.687 224.481 219.471C224.493 220.284 224.505 221.097 224.517 221.935C224.479 225.512 224.31 227.583 222.145 230.495C219.431 232.4 217.543 232.593 214.25 232.75C213.266 232.807 212.281 232.863 211.266 232.922C210.145 232.961 210.145 232.961 209 233C213.476 239.815 217.956 246.627 222.438 253.438C223.097 254.44 223.756 255.442 224.436 256.474C232.978 269.456 241.558 282.404 250.426 295.166C251.045 296.062 251.664 296.959 252.301 297.883C252.829 298.64 253.356 299.396 253.9 300.176C255 302 255 302 255 304C255.66 304 256.32 304 257 304C257.413 302.891 257.413 302.891 257.835 301.759C258.914 299.203 260.095 297.136 261.651 294.85C262.184 294.063 262.716 293.276 263.265 292.465C263.842 291.623 264.418 290.781 265.012 289.914C265.613 289.028 266.214 288.141 266.834 287.228C268.118 285.335 269.404 283.444 270.692 281.553C274.01 276.684 277.314 271.805 280.618 266.926C281.586 265.497 281.586 265.497 282.573 264.04C289.518 253.781 296.311 243.427 303 233C302.253 232.974 301.505 232.948 300.735 232.922C299.75 232.865 298.765 232.808 297.75 232.75C296.776 232.704 295.801 232.657 294.797 232.609C291.203 231.826 290.196 230.953 288 228C287.616 225.031 287.477 222.437 287.519 219.471C287.516 218.602 287.513 217.732 287.509 216.837C287.502 213.919 287.524 211.003 287.546 208.085C287.547 205.996 287.547 203.906 287.544 201.817C287.543 196.14 287.567 190.463 287.595 184.785C287.62 178.854 287.622 172.923 287.627 166.992C287.639 155.758 287.672 144.525 287.712 133.291C287.757 120.503 287.779 107.714 287.799 94.9261C287.841 68.6173 287.911 42.3087 288 16C293.28 16 298.56 16 304 16C304 82 304 148 304 216C310.6 216 317.2 216 324 216C328 220 328 220 328.583 223.694C328.29 228.984 325.616 232.64 322.676 236.895C322.111 237.744 321.545 238.593 320.963 239.468C319.097 242.261 317.205 245.037 315.313 247.812C314.005 249.759 312.699 251.707 311.394 253.656C307.975 258.755 304.534 263.838 301.088 268.918C297.679 273.951 294.29 278.997 290.899 284.043C285.437 292.166 279.967 300.283 274.468 308.381C272.124 311.836 269.795 315.297 267.533 318.807C266.83 319.893 266.127 320.979 265.403 322.098C264.821 323.013 264.24 323.928 263.641 324.871C261.966 327.044 260.928 327.998 258.375 328.938C254.17 329.015 252.546 328.278 249 326C246.741 323.38 244.934 320.516 243.09 317.594C242.533 316.737 241.976 315.881 241.403 314.999C240.198 313.144 239 311.285 237.808 309.422C235.271 305.458 232.704 301.514 230.138 297.568C228.799 295.51 227.463 293.451 226.127 291.392C218.934 280.312 211.54 269.37 204.125 258.438C199.738 251.967 195.354 245.493 191 239C190.595 238.398 190.19 237.795 189.773 237.175C188.747 235.643 187.734 234.103 186.723 232.562C186.2 231.768 185.676 230.974 185.137 230.156C183.188 226.46 183.211 224.09 184 220C185.98 218.02 185.98 218.02 188 216C194.6 216 201.2 216 208 216C208 150 208 84 208 16Z" fill="black"/>
<path d="M137 346C140.633 347.696 142.945 349.738 145.75 352.625C146.549 353.442 147.348 354.26 148.172 355.102C148.775 355.728 149.378 356.355 150 357C148.653 360 147.161 362.087 144.836 364.404C143.86 365.384 143.86 365.384 142.865 366.384C141.795 367.443 141.795 367.443 140.705 368.522C139.953 369.274 139.202 370.026 138.428 370.8C135.944 373.283 133.452 375.759 130.961 378.234C129.237 379.955 127.514 381.675 125.79 383.396C121.254 387.925 116.712 392.448 112.168 396.969C107.533 401.584 102.904 406.204 98.2734 410.824C89.1878 419.888 80.0961 428.946 71 438C67.367 436.304 65.0545 434.262 62.25 431.375C61.4508 430.558 60.6516 429.74 59.8281 428.898C59.2248 428.272 58.6216 427.645 58 427C59.3468 424 60.8391 421.913 63.1637 419.596C63.8144 418.942 64.465 418.289 65.1354 417.616C65.8482 416.91 66.561 416.205 67.2954 415.478C68.4224 414.35 68.4224 414.35 69.5721 413.2C72.0564 410.717 74.5477 408.241 77.0391 405.766C78.763 404.045 80.4865 402.325 82.2096 400.604C86.7458 396.075 91.2881 391.552 95.8316 387.031C100.467 382.416 105.096 377.796 109.727 373.176C118.812 364.112 127.904 355.054 137 346Z" fill="black"/>
<path d="M139.438 393.5C145.262 397.02 149.982 402.489 152 409C152.805 416.836 153.125 424.619 148 431C143.196 436.045 138.838 439.605 131.731 440.336C123.214 440.43 117.324 440.118 111.035 434.129C104.653 427.225 103.52 421.798 103.695 412.445C104.391 404.583 108.048 400.45 113.902 395.445C120.967 390.578 131.594 390.024 139.438 393.5ZM122.625 410.625C120.513 413.712 120.388 415.328 121 419C122.5 421.5 122.5 421.5 125 423C128.672 423.612 130.288 423.487 133.375 421.375C135.487 418.288 135.612 416.672 135 413C133.5 410.5 133.5 410.5 131 409C127.328 408.388 125.712 408.513 122.625 410.625Z" fill="black"/>
<path d="M91.4375 345.5C97.2624 349.02 101.982 354.489 104 361C104.805 368.836 105.125 376.619 100 383C95.1956 388.045 90.8383 391.605 83.7305 392.336C75.2143 392.43 69.3241 392.118 63.0352 386.129C56.6534 379.225 55.5196 373.798 55.6954 364.445C56.3906 356.583 60.0476 352.45 65.9024 347.445C72.9668 342.578 83.5936 342.024 91.4375 345.5ZM74.625 362.625C72.513 365.712 72.3881 367.328 73 371C74.5 373.5 74.5 373.5 77 375C80.6718 375.612 82.2882 375.487 85.375 373.375C87.4871 370.288 87.612 368.672 87 365C85.5 362.5 85.5 362.5 83 361C79.3283 360.388 77.7119 360.513 74.625 362.625Z" fill="black"/>
<path d="M456 48C461.28 48 466.56 48 472 48C472 53.28 472 58.56 472 64C466.72 64 461.44 64 456 64C456 58.72 456 53.44 456 48Z" fill="black"/>
<path d="M456 16C461.28 16 466.56 16 472 16C472 21.28 472 26.56 472 32C466.72 32 461.44 32 456 32C456 26.72 456 21.44 456 16Z" fill="black"/>
</svg>
